<svg width="46" height="30" viewBox="0 0 46 30" fill="none" xmlns="http://www.w3.org/2000/svg">
<path fill-rule="evenodd" clip-rule="evenodd" d="M27.9433 23.6478H18.177V6.35156H27.9435L27.9433 23.6478Z" fill="#FF5F00"/>
<path fill-rule="evenodd" clip-rule="evenodd" d="M18.7956 15.0001C18.7956 11.4915 20.4626 8.36609 23.0584 6.35189C21.0939 4.82535 18.6627 3.99632 16.1609 4.00001C9.99675 4.00001 5 8.92481 5 15.0001C5 21.0752 9.99675 26 16.1609 26C18.6627 26.0037 21.094 25.1747 23.0587 23.6481C20.463 21.6343 18.7956 18.5087 18.7956 15.0001Z" fill="#EB001B"/>
<path fill-rule="evenodd" clip-rule="evenodd" d="M41.1208 15.0001C41.1208 21.0752 36.124 26 29.9599 26C27.4578 26.0036 25.0263 25.1746 23.0613 23.6481C25.6579 21.6339 27.3249 18.5087 27.3249 15.0001C27.3249 11.4913 25.6579 8.36609 23.0613 6.35189C25.0262 4.82535 27.4577 3.99644 29.9597 4.00001C36.1239 4.00001 41.1208 8.92481 41.1208 15.0001Z" fill="#F79410"/>
</svg>
