<svg width="22" height="22" viewBox="0 0 22 22" fill="none" xmlns="http://www.w3.org/2000/svg">
<path d="M13.7955 4.58317C14.6908 4.75786 15.5137 5.19574 16.1587 5.84078C16.8038 6.48582 17.2416 7.30866 17.4163 8.204L13.7955 4.58317ZM13.7955 0.916504C15.6557 1.12315 17.3903 1.95616 18.7145 3.27876C20.0388 4.60136 20.874 6.33493 21.083 8.19484L13.7955 0.916504ZM20.1663 15.5098V18.2598C20.1674 18.5151 20.1151 18.7678 20.0128 19.0017C19.9105 19.2357 19.7605 19.4456 19.5724 19.6182C19.3843 19.7908 19.1622 19.9222 18.9203 20.004C18.6785 20.0858 18.4222 20.1161 18.168 20.0932C15.3473 19.7867 12.6377 18.8228 10.2572 17.279C8.04233 15.8716 6.16455 13.9938 4.75715 11.779C3.20797 9.38761 2.24388 6.66492 1.94299 3.8315C1.92008 3.57802 1.95021 3.32253 2.03145 3.08133C2.11269 2.84012 2.24326 2.61847 2.41486 2.43049C2.58645 2.24251 2.79531 2.09232 3.02813 1.98948C3.26095 1.88664 3.51263 1.83341 3.76715 1.83317H6.51715C6.96202 1.82879 7.3933 1.98633 7.7306 2.27641C8.06791 2.56649 8.28823 2.96933 8.35049 3.40984C8.46656 4.2899 8.68182 5.154 8.99215 5.98567C9.11549 6.31377 9.14218 6.67034 9.06907 7.01314C8.99596 7.35595 8.82611 7.67061 8.57965 7.91984L7.41549 9.084C8.72041 11.3789 10.6206 13.2791 12.9155 14.584L14.0797 13.4198C14.3289 13.1734 14.6435 13.0035 14.9863 12.9304C15.3291 12.8573 15.6857 12.884 16.0138 13.0073C16.8455 13.3177 17.7096 13.5329 18.5897 13.649C19.0349 13.7118 19.4416 13.9361 19.7323 14.2792C20.023 14.6223 20.1775 15.0603 20.1663 15.5098Z" stroke="white" stroke-linecap="round" stroke-linejoin="round"/>
</svg>
