<svg width="46" height="30" viewBox="0 0 46 30" fill="none" xmlns="http://www.w3.org/2000/svg">
<g clip-path="url(#clip0_4206_10666)">
<path d="M18.4251 8.23535L16.0874 21.9537H19.8261L22.1657 8.23535H18.4251Z" fill="#3665C8"/>
<path d="M12.9375 8.25093L9.2757 17.6064L8.88528 16.1938C8.16311 14.4918 6.11296 12.0474 3.70605 10.5069L7.05438 21.9471L11.0104 21.9404L16.8984 8.24805L12.9375 8.25093Z" fill="#3665C8"/>
<path d="M7.47363 9.23267C7.2563 8.39703 6.62645 8.14797 5.84466 8.11816H0.0480805L0 8.39126C4.51091 9.48557 7.49574 12.1223 8.7343 15.2927L7.47363 9.23267Z" fill="#3665C8"/>
<path d="M29.7318 10.8656C30.9549 10.8464 31.8415 11.1137 32.5301 11.3906L32.8676 11.5493L33.3734 8.576C32.633 8.2981 31.4723 8 30.0241 8C26.3296 8 23.7256 9.86071 23.7054 12.5273C23.6813 14.4976 25.5603 15.5977 26.9797 16.2545C28.4365 16.9276 28.925 17.3555 28.9183 17.9565C28.9067 18.8748 27.7566 19.296 26.6825 19.296C25.1853 19.296 24.39 19.0893 23.1621 18.5777L22.6803 18.3585L22.1543 21.4289C23.0294 21.8126 24.6439 22.1424 26.32 22.1597C30.2501 22.1597 32.8041 20.3211 32.831 17.4719C32.8474 15.9131 31.8502 14.7236 29.6895 13.7475C28.3817 13.111 27.5816 12.6878 27.5893 12.0455C27.5893 11.4753 28.2682 10.8656 29.7318 10.8656Z" fill="#3665C8"/>
<path d="M42.9753 8.25098H40.0866C39.1894 8.25098 38.522 8.49523 38.1278 9.38952L32.5764 21.9616H36.5027C36.5027 21.9616 37.1431 20.2711 37.2883 19.9009C37.7181 19.9009 41.5328 19.9066 42.0761 19.9066C42.1877 20.3855 42.532 21.9616 42.532 21.9616H46.0005L42.9753 8.25098ZM38.3643 17.093C38.6721 16.3054 39.8539 13.259 39.8539 13.259C39.8337 13.2965 40.1587 12.4657 40.352 11.9493L40.6039 13.1321C40.6039 13.1321 41.3203 16.4073 41.4703 17.093H38.3643Z" fill="#3665C8"/>
</g>
<defs>
<clipPath id="clip0_4206_10666">
<rect width="46" height="29.9" fill="white"/>
</clipPath>
</defs>
</svg>
